<?xml version="1.0" standalone="no"?>
<!DOCTYPE svg PUBLIC "-//W3C//DTD SVG 20010904//EN"
 "http://www.w3.org/TR/2001/REC-SVG-20010904/DTD/svg10.dtd">
<svg version="1.0" xmlns="http://www.w3.org/2000/svg"
 width="3456.000000pt" height="3456.000000pt" viewBox="0 0 3456.000000 3456.000000"
 preserveAspectRatio="xMidYMid meet">
<metadata>
Created by potrace 1.14, written by Peter Selinger 2001-2017
</metadata>
<g transform="translate(0.000000,3456.000000) scale(0.100000,-0.100000)"
fill="#000000" stroke="none">
<path d="M14828 32390 c-92 -5 -209 -14 -260 -20 -200 -26 -521 -124 -903
-277 -215 -86 -292 -110 -450 -138 -74 -13 -102 -24 -155 -59 -36 -23 -97 -52
-137 -64 -107 -33 -295 -116 -360 -160 -32 -21 -103 -62 -158 -91 -62 -33
-128 -78 -174 -120 -40 -36 -113 -96 -161 -133 -49 -37 -103 -86 -122 -108
-47 -59 -159 -132 -260 -170 -74 -27 -105 -47 -205 -130 -82 -67 -157 -118
-246 -166 -107 -58 -149 -88 -260 -188 -262 -235 -381 -361 -500 -526 -62 -87
-144 -188 -188 -230 -63 -61 -100 -112 -204 -280 -107 -172 -142 -220 -220
-300 -69 -70 -109 -121 -151 -195 -31 -55 -88 -145 -125 -201 -37 -55 -104
-168 -149 -250 -46 -82 -109 -192 -140 -244 -56 -92 -59 -101 -94 -269 -20
-96 -61 -252 -90 -345 -72 -229 -92 -374 -71 -526 8 -58 15 -178 15 -267 0
-142 -2 -166 -19 -195 -36 -61 -51 -188 -51 -416 0 -198 -2 -221 -29 -345 -23
-101 -33 -188 -46 -372 -15 -237 -16 -242 -59 -375 -31 -93 -48 -167 -55 -238
-14 -131 -14 -357 0 -492 9 -96 8 -116 -15 -239 -16 -86 -22 -140 -16 -150 5
-9 29 -32 54 -51 52 -40 43 -22 186 -384 217 -547 264 -725 241 -898 -12 -88
-11 -91 52 -179 21 -28 42 -78 56 -130 22 -82 22 -87 7 -174 -9 -49 -22 -136
-31 -192 -12 -85 -21 -112 -50 -157 -19 -30 -35 -64 -35 -74 0 -35 27 -97 73
-170 26 -39 60 -98 76 -131 56 -111 120 -443 121 -626 l1 -100 55 -77 c54 -77
79 -94 91 -62 3 9 1 98 -6 198 -6 99 -18 294 -27 431 -12 189 -15 330 -10 575
7 375 22 543 76 870 21 129 44 278 51 330 15 121 162 599 223 726 24 51 70
129 101 174 31 46 75 120 97 164 27 54 66 110 118 166 42 47 96 116 119 154
24 38 67 99 97 136 29 37 70 102 89 146 20 43 60 126 89 184 87 170 95 203
103 434 8 257 5 357 -13 480 -18 128 -18 236 1 328 35 167 124 390 241 600 36
66 94 183 129 260 63 140 64 142 270 394 113 139 252 311 307 381 123 158 147
184 223 238 116 83 363 217 653 354 224 106 267 120 1297 421 l680 199 195 6
195 7 155 -42 c85 -23 223 -53 305 -66 218 -36 705 -104 741 -104 17 0 83 12
145 26 l114 26 311 -12 c171 -6 465 -11 655 -9 292 2 354 0 412 -14 162 -40
407 -150 634 -285 101 -60 144 -78 298 -127 240 -75 604 -236 823 -363 131
-77 211 -133 364 -256 l195 -158 6 -82 c3 -44 17 -130 32 -191 14 -60 42 -184
61 -275 l36 -165 -1 -377 c0 -369 0 -379 24 -465 21 -75 25 -110 25 -238 0
-150 0 -151 45 -293 39 -127 53 -157 119 -260 70 -107 94 -134 295 -325 236
-223 321 -327 452 -549 34 -56 105 -157 159 -223 53 -67 102 -130 107 -140 18
-36 71 -228 93 -340 12 -60 58 -254 102 -430 50 -202 88 -383 104 -490 14 -93
38 -242 54 -330 28 -156 36 -249 99 -1196 9 -132 13 -149 36 -149 18 0 19 4
50 210 32 214 45 362 45 533 0 169 18 247 90 402 27 59 50 118 50 131 0 13
-21 88 -46 166 -46 143 -46 143 -41 258 6 133 27 256 67 390 16 52 33 127 39
166 6 39 17 89 25 112 16 44 111 192 124 192 5 0 18 9 30 20 17 16 22 32 22
68 1 99 26 199 64 255 20 29 36 58 36 65 0 13 27 27 72 36 18 4 29 14 32 29 2
12 10 48 16 80 7 33 9 75 5 94 -5 28 -1 43 21 77 33 48 35 101 6 150 -33 55
-34 80 -8 105 21 20 27 21 48 10 12 -6 34 -24 48 -39 38 -42 87 -67 102 -52
13 13 13 13 -36 177 -36 117 -31 181 23 327 l40 107 -14 128 c-8 70 -23 182
-34 248 -11 66 -25 158 -31 205 -6 47 -22 128 -35 180 -13 52 -28 138 -34 190
-5 52 -16 113 -24 135 -8 22 -33 119 -57 215 -33 135 -52 193 -85 255 -23 44
-50 101 -60 126 -9 25 -49 86 -88 135 l-72 90 -28 147 c-18 94 -42 180 -66
239 -21 51 -59 163 -85 248 -57 182 -111 309 -167 392 -80 117 -108 196 -141
393 l-31 180 -57 85 c-32 47 -93 123 -135 170 -102 112 -171 204 -292 385
-113 169 -237 312 -404 466 -63 57 -143 136 -178 174 -36 39 -107 111 -158
160 l-92 91 -213 69 c-117 38 -264 93 -327 122 -187 88 -399 179 -526 226
-217 81 -446 223 -705 435 -63 52 -169 131 -235 175 -66 44 -172 119 -235 167
-136 101 -730 489 -845 550 -44 24 -111 62 -150 86 -124 76 -268 117 -602 173
-164 27 -372 57 -463 66 -91 9 -217 26 -280 37 -99 17 -172 20 -530 23 -228 2
-490 0 -582 -5z"/>
<path d="M21095 14546 c-28 -7 -59 -17 -70 -23 -11 -5 -30 -15 -42 -21 -13 -7
-32 -12 -42 -12 -11 0 -23 -4 -26 -10 -3 -5 -19 -10 -36 -10 -16 0 -37 -4 -47
-9 -38 -18 -138 -64 -157 -71 -50 -18 -148 -63 -155 -70 -5 -5 -83 -43 -135
-65 -76 -32 -137 -63 -221 -112 -55 -32 -98 -51 -107 -47 -12 4 -17 23 -19 77
-2 54 -7 72 -18 75 -38 7 -42 -30 -41 -338 1 -190 -2 -307 -9 -325 -6 -15 -24
-43 -40 -61 -16 -19 -35 -53 -41 -76 -16 -54 -15 -458 1 -683 13 -189 30 -283
76 -426 52 -162 53 -159 -72 -294 -58 -63 -156 -157 -217 -208 -156 -131 -376
-406 -488 -612 -24 -44 -142 -219 -262 -388 -208 -294 -223 -317 -297 -480
-98 -218 -122 -274 -153 -368 -54 -159 -111 -307 -148 -381 -29 -58 -39 -90
-39 -125 0 -55 -27 -108 -62 -123 -13 -5 -79 -21 -148 -35 -69 -14 -298 -67
-510 -116 -436 -103 -546 -122 -815 -144 -104 -8 -329 -28 -500 -44 -434 -41
-699 -51 -1315 -51 -686 1 -843 9 -1063 54 -195 39 -205 45 -394 209 -100 87
-135 109 -330 213 -120 64 -306 160 -413 214 -127 64 -251 136 -357 207 -123
83 -190 121 -280 158 -124 51 -201 106 -408 290 -44 39 -126 108 -182 154
l-103 82 0 52 c0 29 -5 120 -11 202 -10 125 -9 176 4 310 15 152 19 167 67
289 60 149 90 264 121 466 15 102 33 175 59 245 66 175 81 293 89 691 4 192 5
353 3 357 -2 4 -10 3 -18 -4 -11 -9 -17 -9 -28 0 -11 9 -22 2 -54 -36 -34 -41
-51 -52 -113 -72 -85 -27 -237 -104 -259 -131 -8 -10 -26 -21 -39 -25 -14 -4
-47 -25 -75 -47 -27 -22 -66 -48 -85 -58 -20 -10 -54 -37 -76 -59 -21 -23 -43
-41 -47 -41 -10 0 -116 -69 -136 -87 -7 -7 -18 -13 -23 -13 -5 0 -17 -8 -27
-17 -46 -46 -148 -111 -174 -113 -4 0 -38 -14 -75 -31 -37 -17 -79 -36 -93
-42 -14 -6 -38 -20 -55 -32 -16 -12 -55 -34 -85 -49 -30 -15 -78 -40 -107 -56
-79 -43 -160 -71 -243 -82 -99 -13 -173 -24 -240 -37 -58 -11 -98 -8 -165 14
-42 14 -133 48 -172 65 -125 54 -196 69 -325 70 -114 0 -122 -2 -236 -58 -102
-50 -151 -107 -235 -273 -37 -74 -67 -141 -67 -149 0 -9 -7 -26 -16 -38 -16
-23 -17 -23 -177 -17 -89 3 -189 10 -222 15 -33 6 -86 10 -117 10 -95 0 -334
59 -463 115 -45 19 -154 23 -207 7 -18 -6 -53 -16 -78 -22 -48 -13 -109 -51
-152 -96 -46 -48 -88 -99 -88 -106 0 -5 -8 -16 -18 -26 -15 -15 -54 -91 -84
-162 -6 -14 -14 -33 -19 -42 -5 -10 -9 -26 -9 -36 0 -10 -4 -22 -8 -28 -9 -9
-15 -30 -56 -179 -22 -80 -37 -139 -76 -310 -19 -84 -14 -243 10 -316 12 -35
26 -68 31 -73 5 -6 9 -20 9 -32 0 -13 5 -26 10 -29 14 -8 13 -71 -1 -98 -7
-11 -26 -37 -44 -56 -83 -91 -169 -245 -198 -356 -41 -158 -44 -268 -12 -410
8 -38 18 -91 22 -117 5 -45 4 -47 -28 -64 -19 -9 -36 -20 -39 -24 -4 -7 -81
-51 -120 -70 -23 -11 -61 -27 -100 -40 -19 -7 -60 -24 -90 -37 -59 -27 -64
-30 -155 -63 -33 -13 -73 -28 -90 -35 -16 -7 -52 -20 -80 -28 -44 -14 -175
-64 -230 -88 -11 -5 -45 -18 -75 -30 -30 -11 -68 -27 -85 -34 -16 -7 -48 -19
-70 -25 -46 -14 -215 -76 -260 -95 -63 -28 -190 -75 -202 -75 -7 0 -21 -4 -31
-9 -9 -5 -60 -26 -112 -46 -125 -49 -142 -56 -162 -66 -10 -5 -23 -9 -30 -9
-14 0 -143 -46 -170 -61 -10 -5 -27 -9 -38 -9 -11 0 -28 -4 -38 -10 -24 -13
-208 -70 -262 -80 -83 -16 -185 -40 -230 -55 -25 -8 -83 -21 -130 -30 -47 -9
-130 -25 -185 -36 -55 -11 -122 -24 -150 -30 -140 -26 -220 -42 -325 -66 -63
-14 -133 -29 -155 -33 -305 -59 -536 -114 -630 -149 -44 -16 -157 -75 -198
-102 -39 -26 -141 -64 -267 -100 -25 -8 -56 -19 -70 -26 -14 -7 -36 -13 -50
-13 -14 0 -63 -9 -110 -20 -141 -32 -492 -70 -655 -70 -110 0 -485 -26 -517
-36 -9 -2 -100 -5 -202 -6 l-186 -1 0 -3813 0 -3814 17280 0 17280 0 0 3458 0
3458 -64 57 c-36 31 -69 57 -75 57 -6 0 -11 4 -11 8 0 4 -25 21 -55 37 -30 17
-55 32 -55 35 0 3 -25 18 -55 35 -30 16 -55 33 -55 37 0 4 -9 8 -21 8 -11 0
-39 13 -62 28 -51 35 -105 62 -124 62 -7 0 -13 5 -13 10 0 6 -4 10 -9 10 -5 0
-33 16 -62 35 -30 19 -59 35 -65 35 -10 0 -45 30 -140 121 -22 21 -47 51 -54
66 -8 16 -34 56 -57 89 -24 34 -43 65 -43 69 0 7 -63 89 -80 105 -3 3 -18 23
-35 45 -37 51 -181 192 -217 213 -16 9 -28 20 -28 24 0 4 -7 8 -15 8 -8 0 -15
4 -15 8 0 5 -26 21 -57 36 -32 15 -66 32 -75 37 -10 5 -25 9 -33 9 -8 0 -15 3
-15 8 0 9 -61 28 -153 48 -54 11 -120 14 -262 12 l-190 -3 -34 30 c-19 17 -41
38 -50 49 -9 10 -22 24 -28 31 -7 8 -13 16 -13 20 0 4 -20 38 -45 76 -25 38
-45 74 -45 79 0 6 -4 18 -9 28 -9 15 -28 58 -74 162 -9 19 -25 62 -37 95 -11
33 -25 68 -31 77 -5 10 -9 25 -9 33 0 8 -3 15 -8 15 -4 0 -13 13 -19 28 -17
37 -156 209 -195 242 -17 14 -41 34 -52 45 -36 35 -204 115 -241 115 -19 0
-37 5 -40 10 -3 6 -52 10 -111 10 -91 0 -109 3 -142 23 -83 51 -201 92 -295
102 -32 4 -145 11 -250 16 -106 5 -250 14 -322 19 -71 6 -202 14 -290 19 -88
4 -191 13 -230 20 -172 29 -276 45 -355 52 -47 4 -123 13 -170 19 -47 6 -116
15 -155 20 -107 12 -297 49 -322 61 -30 16 -70 6 -131 -32 -46 -28 -66 -33
-175 -45 -100 -10 -137 -19 -202 -48 -118 -51 -260 -84 -402 -92 l-122 -7 -78
50 c-131 84 -589 355 -753 446 -103 57 -185 95 -245 112 -56 17 -108 40 -138
62 -41 30 -64 38 -178 59 -72 13 -138 28 -147 33 -18 10 -286 23 -472 23 -149
0 -330 -24 -330 -43 0 -5 -9 -9 -20 -9 -11 0 -45 -11 -76 -25 -31 -14 -63 -25
-70 -25 -7 0 -28 -8 -46 -18 -18 -10 -54 -27 -80 -37 -27 -10 -48 -22 -48 -26
0 -5 -7 -9 -15 -9 -8 0 -23 -4 -33 -9 -59 -30 -81 -36 -136 -36 -57 0 -126 20
-126 37 0 5 -6 8 -14 8 -20 0 -116 51 -116 61 0 5 -8 9 -18 9 -11 0 -27 8 -36
19 -9 10 -37 26 -61 36 -25 9 -45 21 -45 26 0 5 -6 9 -13 9 -7 0 -41 14 -76
31 -106 52 -147 61 -361 78 -58 5 -130 14 -160 20 -30 6 -95 15 -145 21 -87
10 -150 26 -169 42 -6 4 -22 8 -37 8 -15 0 -31 5 -34 10 -3 6 -21 10 -39 10
-19 0 -44 8 -56 18 -21 17 -22 23 -25 332 -2 173 -8 333 -14 355 -6 22 -11 72
-11 111 0 38 -4 74 -9 80 -5 5 -12 34 -15 64 -7 82 -17 130 -27 136 -5 3 -9
14 -9 24 0 18 -28 89 -40 100 -3 3 -14 22 -25 43 -11 22 -32 52 -47 68 -16 16
-28 31 -28 34 0 7 -40 53 -85 98 -33 33 -91 81 -210 173 -11 9 -30 21 -42 27
-13 5 -23 14 -23 19 0 4 -6 8 -13 8 -7 0 -23 10 -35 23 -12 12 -38 36 -59 52
-21 17 -54 47 -75 68 -20 20 -43 37 -49 37 -7 0 -25 13 -40 30 -25 25 -29 38
-29 84 0 48 -4 59 -40 102 -42 52 -47 69 -29 119 10 26 7 49 -16 140 -15 61
-36 122 -46 137 -11 14 -19 37 -19 50 0 31 -37 145 -56 175 -8 12 -14 27 -14
33 0 5 -16 44 -35 86 -19 41 -35 78 -35 80 0 3 -13 24 -29 47 -29 43 -41 74
-61 162 -6 27 -18 65 -27 85 -8 19 -20 46 -25 60 -6 14 -14 33 -19 42 -5 10
-9 23 -9 30 0 8 -15 36 -33 63 -18 28 -41 67 -52 88 -11 21 -27 46 -35 55 -9
9 -30 37 -47 62 -47 68 -167 194 -226 237 -29 21 -53 41 -55 45 -2 5 -8 8 -13
8 -6 0 -15 4 -22 10 -43 35 -109 80 -117 80 -6 0 -10 3 -10 8 0 8 -32 23 -99
47 -51 18 -145 18 -216 1z"/>
</g>
</svg>
